<svg id="Guide" height="512" viewBox="0 0 512 512" width="512" xmlns="http://www.w3.org/2000/svg"><path d="m124.1 502h263.8a24.129 24.129 0 0 0 24.1-24.1v-3.8a24.128 24.128 0 0 0 -24.1-24.1h-8.439v-96.255h8.439a24.129 24.129 0 0 0 24.1-24.1v-3.8a24.128 24.128 0 0 0 -24.1-24.1h-92.243v-21.489c39.038-15.867 67.087-54.44 68.82-99.875a19.85 19.85 0 0 0 12.169-18.281v-2.9a19.843 19.843 0 0 0 -19.821-19.821h-95.085l.436-29.232h40.364a18 18 0 0 0 12.982-5.612l17.587-18.519a4 4 0 0 1 2.568-1.256l21.506.132v21.488a6 6 0 1 0 12 0v-21.417l20.11.123h.038a6 6 0 0 0 .036-12l-20.184-.124v-23.041a18.956 18.956 0 0 0 14.017-18.268v-2.716a18.959 18.959 0 0 0 -18.935-18.937h-1.771a18.959 18.959 0 0 0 -18.938 18.937v2.716a18.962 18.962 0 0 0 13.627 18.167v23.069l-21.8-.133-.165.007a15.936 15.936 0 0 0 -10.809 4.987l-17.587 18.517a5.876 5.876 0 0 1 -4.282 1.877h-40.185l.209-13.958a24.416 24.416 0 0 0 17.945-23.714c0-13.5-10.707-24.478-23.868-24.478s-23.867 10.981-23.867 24.478a24.42 24.42 0 0 0 17.789 23.671l-.209 14h-33.483a6 6 0 1 0 0 12h33.3l-.437 29.232h-94.558a19.844 19.844 0 0 0 -19.823 19.825v2.9a19.849 19.849 0 0 0 12.17 18.282c1.732 45.435 29.782 84.008 68.82 99.875v21.486h-92.243a24.127 24.127 0 0 0 -24.1 24.1v3.8a24.128 24.128 0 0 0 24.1 24.1h8.441v96.257h-8.441a24.127 24.127 0 0 0 -24.1 24.1v3.8a24.128 24.128 0 0 0 24.1 24.1zm231.456-473.063a6.946 6.946 0 0 1 6.938-6.937h1.771a6.945 6.945 0 0 1 6.938 6.937v2.716a6.945 6.945 0 0 1 -6.938 6.938h-1.771a6.946 6.946 0 0 1 -6.938-6.938zm-110.782 31.535c0-6.881 5.323-12.478 11.867-12.478s11.868 5.6 11.868 12.478-5.324 12.478-11.868 12.478-11.867-5.598-11.867-12.478zm-97.421 98.728a7.83 7.83 0 0 1 7.823-7.821h201.649a7.83 7.83 0 0 1 7.821 7.821v2.9a7.831 7.831 0 0 1 -7.821 7.822h-201.649a7.831 7.831 0 0 1 -7.823-7.822zm12.247 22.721h192.8c-3 52.4-45.093 94.077-96.4 94.077s-93.4-41.677-96.4-94.077zm68.742 102.387a105.491 105.491 0 0 0 55.314 0v17.434h-55.313zm-116.342 45.335v-3.8a12.115 12.115 0 0 1 12.1-12.1h96.79a5.825 5.825 0 0 0 2.905 0h64.405a5.829 5.829 0 0 0 2.906 0h96.794a12.116 12.116 0 0 1 12.1 12.1v3.8a12.116 12.116 0 0 1 -12.1 12.1h-263.8a12.115 12.115 0 0 1 -12.1-12.1zm32.542 24.1h222.917v96.257h-222.917zm-32.542 120.357a12.114 12.114 0 0 1 12.1-12.1h263.8a12.115 12.115 0 0 1 12.1 12.1v3.8a12.116 12.116 0 0 1 -12.1 12.1h-263.8a12.115 12.115 0 0 1 -12.1-12.1z"/><path d="m321.055 367.842h-130.111a8.009 8.009 0 0 0 -8 8v52.978a8.009 8.009 0 0 0 8 8h130.111a8.009 8.009 0 0 0 8-8v-52.978a8.009 8.009 0 0 0 -8-8zm-4 56.978h-122.111v-44.978h122.111z"/></svg>