<svg id="Out_line" height="512" viewBox="0 0 512 512" width="512" xmlns="http://www.w3.org/2000/svg" data-name="Out line"><path d="m72 272a8.00039 8.00039 0 0 0 -8 8v168h-24a8.00039 8.00039 0 0 0 -8 8v32a8.00039 8.00039 0 0 0 8 8h320a8.00039 8.00039 0 0 0 8-8v-32a8.00039 8.00039 0 0 0 -8-8h-24v-168a8.00039 8.00039 0 0 0 -8-8h-48v-31.03491a112.0653 112.0653 0 0 0 56-96.96509 8.00039 8.00039 0 0 0 -8-8h-88v-16h232a8 8 0 0 0 0-16h-16v-16h16a8.00039 8.00039 0 0 0 8-8v-56a8.00039 8.00039 0 0 0 -8-8h-48a8.00039 8.00039 0 0 0 -8 8v56a8.00039 8.00039 0 0 0 8 8h16v16h-216v-24a8.00039 8.00039 0 0 0 -8-8h-32a8.00039 8.00039 0 0 0 -8 8v24h-48a8 8 0 0 0 0 16h32v16h-88a8.00039 8.00039 0 0 0 -8 8 112.0653 112.0653 0 0 0 56 96.96509v31.03491zm360-240h32v40h-32zm-80 448h-304v-16h304zm-64-32h-176v-128h176zm32 0h-16v-136a8.00039 8.00039 0 0 0 -8-8h-192a8.00039 8.00039 0 0 0 -8 8v136h-16v-160h240zm-128-360h16v16h-16zm-16 32h48v16h-48zm-87.25879 64h119.25879a8 8 0 0 0 0-16h-124.95947a95.45878 95.45878 0 0 1 -2.71045-16h239.33984a96.13325 96.13325 0 0 1 -95.66992 88h-48a96.12913 96.12913 0 0 1 -87.25879-56zm47.25879 64.60986a111.43457 111.43457 0 0 0 40 7.39014h48a111.43457 111.43457 0 0 0 40-7.39014v23.39014h-128z"/><path d="m200 408a24 24 0 1 0 -24-24 24.0275 24.0275 0 0 0 24 24zm0-32a8 8 0 1 1 -8 8 8.00917 8.00917 0 0 1 8-8z"/></svg>